#!OML:ASF F:\VICON\USERDATA\INSTALL\rory3\rory3.ASF
:FULLY-SPECIFIED
:DEGREES
82
root -12.3726 17.6989 -0.868592 175.924 0.429276 172.793
lowerback 13.1009 -6.099 -10.22
upperback 1.72831 -9.241 1.25995
thorax -3.60323 -4.36804 8.37116
lowerneck 5.35066 -23.6226 -16.6093
upperneck 32.8417 -34.0334 13.4471
head 16.6029 -14.8037 2.82091
rclavicle -4.78077e-014 -1.11319e-014
rhumerus -39.4155 -20.9951 -71.8963
rradius 28.4726
rwrist 5.56363
rhand -14.6854 4.84333
rfingers 7.12502
rthumb 11.4682 -24.823
lclavicle -4.78077e-014 -1.11319e-014
lhumerus -18.7894 -6.93893 89.5976
lradius 39.0948
lwrist -2.62062
lhand -18.4096 26.8576
lfingers 7.12502
lthumb 7.87499 56.6909
rfemur -27.8731 -2.38806 14.1777
rtibia 43.4408
rfoot -12.9881 -3.90502
rtoes -2.67019
lfemur 12.9271 2.46735 -29.196
ltibia 16.7556
lfoot -7.32289 -14.155
ltoes -7.55274
83
root -12.3709 17.7147 -0.766072 175.845 0.035658 172.87
lowerback 13.1609 -6.10437 -10.1925
upperback 1.69614 -9.25105 1.31417
thorax -3.66359 -4.36858 8.42655
lowerneck 5.33274 -23.5572 -16.7115
upperneck 32.8657 -33.8869 13.317
head 16.5718 -14.7596 2.81674
rclavicle 2.87244e-014 -2.54444e-014
rhumerus -39.4629 -20.8783 -71.8332
rradius 28.493
rwrist 5.52527
rhand -14.6798 5.16657
rfingers 7.12502
rthumb 11.4735 -24.4994
lclavicle 2.87244e-014 -2.54444e-014
lhumerus -19.1079 -6.68534 89.7061
lradius 38.661
lwrist -2.73807
lhand -17.1407 27.4838
lfingers 7.12502
lthumb 9.09956 57.2675
rfemur -27.7643 -2.5499 14.1831
rtibia 45.2671
rfoot -13.0136 -3.70566
rtoes -2.03119
lfemur 12.5845 2.31365 -29.1071
ltibia 16.9419
lfoot -7.23631 -14.1514
ltoes -7.26493
84
root -12.3684 17.7384 -0.668572 175.759 -0.337269 172.969
lowerback 13.1883 -5.78331 -10.0603
upperback 1.66573 -9.30321 1.37759
thorax -3.74632 -4.59025 8.46042
lowerneck 5.50966 -23.5108 -16.7016
upperneck 32.6795 -33.7625 13.2301
head 16.3799 -14.7433 2.84125
rclavicle 1.15394e-013 4.77083e-015
rhumerus -39.4824 -20.7029 -71.7792
rradius 28.4853
rwrist 5.49939
rhand -14.7804 5.43125
rfingers 7.12502
rthumb 11.3765 -24.2401
lclavicle 1.15394e-013 4.77083e-015
lhumerus -19.4931 -6.44013 89.8434
lradius 38.2375
lwrist -2.85616
lhand -17.079 27.1026
lfingers 7.12502
lthumb 9.15913 56.8837
rfemur -27.599 -2.67924 14.1926
rtibia 47.0213
rfoot -12.8594 -3.40361
rtoes -0.639922
lfemur 12.1888 2.26793 -28.9582
ltibia 17.2463
lfoot -7.14879 -14.2785
ltoes -6.77248
85
root -12.3604 17.7616 -0.568975 175.717 -0.794173 172.976
lowerback 13.236 -5.77973 -10.1785
upperback 1.65801 -9.31808 1.41904
thorax -3.75163 -4.59527 8.57777
lowerneck 5.59498 -23.493 -16.7222
upperneck 32.6062 -33.7049 13.191
head 16.3043 -14.7344 2.85541
rclavicle 7.54388e-014 -2.94201e-014
rhumerus -39.3806 -20.7017 -71.7814
rradius 28.4738
rwrist 5.5273
rhand -14.8576 5.49422
rfingers 7.12502
rthumb 11.3021 -24.1813
lclavicle 7.54388e-014 -2.94201e-014
lhumerus -19.7928 -6.0766 89.936
lradius 37.746
lwrist -3.20552
lhand -18.0575 25.9966
lfingers 7.12502
lthumb 8.21482 55.8169
rfemur -27.3957 -2.81672 14.0963
rtibia 48.7234
rfoot -13.1579 -3.17663
rtoes -0.870583
lfemur 11.6472 2.23803 -28.8624
ltibia 17.6984
lfoot -7.07304 -14.4916
ltoes -5.99979
86
root -12.3508 17.7734 -0.468178 175.657 -1.2284 173.027
lowerback 13.2605 -5.71727 -10.1972
upperback 1.68861 -9.24033 1.42217
thorax -3.74531 -4.55886 8.58494
lowerneck 5.79201 -23.4944 -16.8992
upperneck 32.4807 -33.759 13.4474
head 16.3266 -14.7638 2.97516
rclavicle -2.5842e-014 2.38542e-015
rhumerus -39.3693 -20.822 -71.8169
rradius 28.5909
rwrist 5.30847
rhand -14.7774 5.6536
rfingers 7.12502
rthumb 11.3794 -24.0176
lclavicle -2.5842e-014 2.38542e-015
lhumerus -20.0152 -5.84703 90.0168
lradius 37.2119
lwrist -3.64475
lhand -18.4335 25.5991
lfingers 7.12502
lthumb 7.85194 55.4333
rfemur -27.0992 -2.90695 14.0707
rtibia 50.368
rfoot -13.8681 -3.06197
rtoes -3.37108
lfemur 11.0374 2.03581 -28.7564
ltibia 18.3045
lfoot -6.83397 -14.6654
ltoes -4.06165
